<svg width="17" height="17" viewBox="0 0 17 17" fill="none" xmlns="http://www.w3.org/2000/svg">
  <path d="M16 8.5C16 9.14 15.2137 9.6675 15.0562 10.2575C14.8937 10.8675 15.305 11.7175 14.9963 12.2513C14.6825 12.7938 13.7387 12.8588 13.2987 13.2987C12.8588 13.7387 12.7938 14.6825 12.2513 14.9963C11.7175 15.305 10.8675 14.8937 10.2575 15.0562C9.6675 15.2137 9.14 16 8.5 16C7.86 16 7.3325 15.2137 6.7425 15.0562C6.1325 14.8937 5.2825 15.305 4.74875 14.9963C4.20625 14.6825 4.14125 13.7387 3.70125 13.2987C3.26125 12.8588 2.3175 12.7938 2.00375 12.2513C1.695 11.7175 2.10625 10.8675 1.94375 10.2575C1.78625 9.6675 1 9.14 1 8.5C1 7.86 1.78625 7.3325 1.94375 6.7425C2.10625 6.1325 1.695 5.2825 2.00375 4.74875C2.3175 4.20625 3.26125 4.14125 3.70125 3.70125C4.14125 3.26125 4.20625 2.3175 4.74875 2.00375C5.2825 1.695 6.1325 2.10625 6.7425 1.94375C7.3325 1.78625 7.86 1 8.5 1C9.14 1 9.6675 1.78625 10.2575 1.94375C10.8675 2.10625 11.7175 1.695 12.2513 2.00375C12.7938 2.3175 12.8588 3.26125 13.2987 3.70125C13.7387 4.14125 14.6825 4.20625 14.9963 4.74875C15.305 5.2825 14.8937 6.1325 15.0562 6.7425C15.2137 7.3325 16 7.86 16 8.5Z" fill="#0038FF" />
  <path d="M10.6674 6.26438L7.81242 9.11938L6.33242 7.64063C6.01117 7.31938 5.48992 7.31938 5.16867 7.64063C4.84742 7.96188 4.84742 8.48313 5.16867 8.80438L7.24492 10.8806C7.55742 11.1931 8.06492 11.1931 8.37742 10.8806L11.8299 7.42813C12.1512 7.10688 12.1512 6.58563 11.8299 6.26438C11.5087 5.94312 10.9887 5.94312 10.6674 6.26438Z" fill="#FFFCEE" />
</svg>