<svg width="30" height="30" viewBox="0 0 30 30" fill="none" xmlns="http://www.w3.org/2000/svg">
  <path d="M24.7415 5.25906C22.0383 2.55584 17.6269 2.54306 14.9236 5.24635L3.92516 16.2448C1.95125 18.2187 1.95761 21.4368 3.93152 23.4107C5.90543 25.3847 9.12359 25.391 11.0975 23.4171L20.7043 13.8103C21.9489 12.5658 21.9489 10.5407 20.7043 9.29622C19.4598 8.0517 17.4348 8.0517 16.1903 9.29622L7.8734 17.6131C7.45791 18.0286 7.45791 18.7023 7.8734 19.1177C8.28889 19.5332 8.96257 19.5332 9.37806 19.1177L17.6949 10.8009C18.1098 10.386 18.7848 10.386 19.1996 10.8009C19.6144 11.2157 19.6144 11.8907 19.1996 12.3055L9.59277 21.9124C8.44854 23.0566 6.58037 23.0502 5.43618 21.906C4.29199 20.7618 4.2856 18.8936 5.42982 17.7494L16.4282 6.75101C18.3018 4.87744 21.3632 4.89015 23.2368 6.76376C25.1104 8.63737 25.1231 11.6987 23.2495 13.5723L12.9554 23.8664C12.54 24.2819 12.54 24.9556 12.9554 25.3711C13.3709 25.7866 14.0446 25.7866 14.4601 25.3711L24.7542 15.077C27.4575 12.3737 27.4447 7.96232 24.7415 5.25906Z" fill="#A4A4AB" />
</svg>